<?xml version="1.0" encoding="utf-8"?>
<!-- Generator: Adobe Illustrator 22.1.0, SVG Export Plug-In . SVG Version: 6.00 Build 0)  -->
<svg version="1.1" id="Layer_1" xmlns="http://www.w3.org/2000/svg" xmlns:xlink="http://www.w3.org/1999/xlink" x="0px" y="0px"
	 viewBox="0 0 87.8 104.9" style="enable-background:new 0 0 87.8 104.9;" xml:space="preserve">
<style type="text/css">
	.st0{fill:#00B9E7;}
	.st1{fill:#FDB913;}
	.st2{fill:#FFFFFF;}
	.st3{fill:#CE181E;}
</style>
<path id="XMLID_216_" class="st0" d="M23.8,8.8c-1.3,0.5-5.7,4.8-8.5,9.4c0.5,0.3,0.9,0.6,1.3,0.9c4.7-5.3,7.2-5.9,7.2-5.9
	s3.8,1,10.8,10.4C33.4,17.5,25.7,9.5,23.8,8.8z"/>
<g id="XMLID_213_">
	<path id="XMLID_215_" class="st0" d="M13.3,14.5c-1.1,0.4-5.9,6.2-6.6,10c4.3-5.8,6.6-6.2,6.6-6.2s2.3,0.4,6.6,6.2
		C19.2,20.7,14.4,14.9,13.3,14.5z"/>
	<path id="XMLID_214_" class="st0" d="M34.4,14.5c-0.5,0.2-1.9,1.6-3.3,3.5c0.4,0.5,0.7,1.2,0.9,1.8c1.6-1.3,2.4-1.5,2.4-1.5
		s2.3,0.4,6.6,6.2C40.3,20.7,35.5,14.9,34.4,14.5z"/>
</g>
<path id="XMLID_212_" class="st0" d="M84.7,77.3c-0.6,0.4-1.5,0.7-2.6,0.7c-0.3,0-0.7,0-1-0.1l0,0c-0.1,0-0.2-0.1-0.4-0.1l0,0
	c-0.3-0.1-0.5-0.3-0.7-0.5l-0.1-0.1l0,0l0,0l-0.1-0.1C79.2,76,80,75.3,80,75.3s-0.4-0.2-0.5-0.3c-0.7-0.3-2.2-0.5-3.6-0.1
	c-1.4,0.5-2.2,1.1-3,1.8c-0.4,0.3-1.5,1.4-3.5,1.4c-0.3,0-0.7,0-1-0.1l0,0c-0.1,0-0.2-0.1-0.4-0.1l0,0c-0.3-0.1-0.5-0.3-0.7-0.5
	l-0.1-0.1l0,0l0,0l-0.1-0.1c-0.6-1.1,0.2-1.8,0.2-1.8s-0.4-0.2-0.5-0.3c-0.7-0.3-2.2-0.5-3.6-0.1c-1.4,0.5-2.2,1.1-3,1.8
	c-0.4,0.3-1.5,1.4-3.5,1.4c-0.3,0-0.7,0-1-0.1l0,0c-0.1,0-0.2-0.1-0.4-0.1l0,0c-0.3-0.1-0.5-0.3-0.7-0.5l-0.1-0.1l0,0l0,0l-0.1-0.1
	c-0.6-1.1,0.2-1.8,0.2-1.8s-0.4-0.2-0.5-0.3c-0.7-0.3-2.2-0.5-3.6-0.1c-1.4,0.5-2.2,1.1-3,1.8c-0.4,0.3-1.5,1.4-3.5,1.4v2.3
	c1.3,0,2.6-0.4,3.7-1.1c0.5-0.4,0.9-0.7,1.3-1c0.8-0.6,1.2-1.1,2.3-1.5c0.5-0.2,1-0.2,1.6-0.1c-0.1,0.2-0.3,2,1,2.9
	c0.7,0.5,1.6,0.8,2.8,0.8c1.3,0,2.6-0.4,3.7-1.1c0.5-0.4,0.9-0.7,1.3-1c0.8-0.6,1.2-1.1,2.3-1.5c0.5-0.2,1-0.2,1.6-0.1
	c-0.1,0.2-0.3,2,1,2.9c0.7,0.5,1.6,0.8,2.8,0.8c1.3,0,2.6-0.4,3.7-1.1c0.5-0.4,0.9-0.7,1.3-1c0.8-0.6,1.2-1.1,2.3-1.5
	c0.5-0.2,1-0.2,1.6-0.1c-0.1,0.2-0.3,2,1,2.9c0.7,0.5,1.6,0.8,2.8,0.8c0.9,0,1.8-0.2,2.6-0.6L84.7,77.3L84.7,77.3z"/>
<path id="XMLID_211_" class="st0" d="M23.8,8.8c-1.3,0.5-5.7,4.8-8.5,9.4c0.5,0.3,0.9,0.6,1.3,0.9c4.7-5.3,7.2-5.9,7.2-5.9
	s3.8,1,10.8,10.4C33.4,17.5,25.7,9.5,23.8,8.8z"/>
<g id="XMLID_208_">
	<path id="XMLID_210_" class="st0" d="M13.3,14.5c-1.1,0.4-5.9,6.2-6.6,10c4.3-5.8,6.6-6.2,6.6-6.2s2.3,0.4,6.6,6.2
		C19.2,20.7,14.4,14.9,13.3,14.5z"/>
	<path id="XMLID_209_" class="st0" d="M34.4,14.5c-0.5,0.2-1.9,1.6-3.3,3.5c0.4,0.5,0.7,1.2,0.9,1.8c1.6-1.3,2.4-1.5,2.4-1.5
		s2.3,0.4,6.6,6.2C40.3,20.7,35.5,14.9,34.4,14.5z"/>
</g>
<path id="XMLID_207_" class="st0" d="M84.7,77.3c-0.6,0.4-1.5,0.7-2.6,0.7c-0.3,0-0.7,0-1-0.1l0,0c-0.1,0-0.2-0.1-0.4-0.1l0,0
	c-0.3-0.1-0.5-0.3-0.7-0.5l-0.1-0.1l0,0l0,0l-0.1-0.1C79.2,76,80,75.3,80,75.3s-0.4-0.2-0.5-0.3c-0.7-0.3-2.2-0.5-3.6-0.1
	c-1.4,0.5-2.2,1.1-3,1.8c-0.4,0.3-1.5,1.4-3.5,1.4c-0.3,0-0.7,0-1-0.1l0,0c-0.1,0-0.2-0.1-0.4-0.1l0,0c-0.3-0.1-0.5-0.3-0.7-0.5
	l-0.1-0.1l0,0l0,0l-0.1-0.1c-0.6-1.1,0.2-1.8,0.2-1.8s-0.4-0.2-0.5-0.3c-0.7-0.3-2.2-0.5-3.6-0.1c-1.4,0.5-2.2,1.1-3,1.8
	c-0.4,0.3-1.5,1.4-3.5,1.4c-0.3,0-0.7,0-1-0.1l0,0c-0.1,0-0.2-0.1-0.4-0.1l0,0c-0.3-0.1-0.5-0.3-0.7-0.5l-0.1-0.1l0,0l0,0l-0.1-0.1
	c-0.6-1.1,0.2-1.8,0.2-1.8s-0.4-0.2-0.5-0.3c-0.7-0.3-2.2-0.5-3.6-0.1c-1.4,0.5-2.2,1.1-3,1.8c-0.4,0.3-1.5,1.4-3.5,1.4v2.3
	c1.3,0,2.6-0.4,3.7-1.1c0.5-0.4,0.9-0.7,1.3-1c0.8-0.6,1.2-1.1,2.3-1.5c0.5-0.2,1-0.2,1.6-0.1c-0.1,0.2-0.3,2,1,2.9
	c0.7,0.5,1.6,0.8,2.8,0.8c1.3,0,2.6-0.4,3.7-1.1c0.5-0.4,0.9-0.7,1.3-1c0.8-0.6,1.2-1.1,2.3-1.5c0.5-0.2,1-0.2,1.6-0.1
	c-0.1,0.2-0.3,2,1,2.9c0.7,0.5,1.6,0.8,2.8,0.8c1.3,0,2.6-0.4,3.7-1.1c0.5-0.4,0.9-0.7,1.3-1c0.8-0.6,1.2-1.1,2.3-1.5
	c0.5-0.2,1-0.2,1.6-0.1c-0.1,0.2-0.3,2,1,2.9c0.7,0.5,1.6,0.8,2.8,0.8c0.9,0,1.8-0.2,2.6-0.6L84.7,77.3L84.7,77.3z"/>
<path id="XMLID_206_" class="st1" d="M30.4,74.8l7.5-1.4c0.2,0,0.2-0.3,0-0.4l-7.5-1.4c-0.2,0-0.2-0.2-0.1-0.3l5.8-5
	c0.2-0.1,0-0.4-0.2-0.3l-7.2,2.6c-0.2,0.1-0.3-0.1-0.2-0.2l2.6-7.2c0.1-0.2-0.2-0.3-0.3-0.2l-5,5.8c-0.1,0.1-0.3,0.1-0.3-0.1
	L24,59.2c0-0.2-0.3-0.2-0.4,0l-1.4,7.5c0,0.2-0.2,0.2-0.3,0.1L17,61c-0.1-0.2-0.4,0-0.3,0.2l2.6,7.2c0.1,0.2-0.1,0.3-0.2,0.2
	L11.7,66c-0.2-0.1-0.3,0.2-0.2,0.3l5.8,5c0.1,0.1,0.1,0.3-0.1,0.3L9.8,73c-0.2,0-0.2,0.3,0,0.4l7.5,1.4c0.2,0,0.2,0.2,0.1,0.3
	l-5.8,5c-0.2,0.1,0,0.4,0.2,0.3l7.2-2.6c0.2-0.1,0.3,0.1,0.2,0.2l-2.6,7.2c-0.1,0.2,0.2,0.3,0.3,0.2l5-5.8c0.1-0.1,0.3-0.1,0.3,0.1
	l1.4,7.5c0,0.2,0.3,0.2,0.4,0l1.4-7.5c0-0.2,0.2-0.2,0.3-0.1l5,5.8c0.1,0.2,0.4,0,0.3-0.2L28.4,78c-0.1-0.2,0.1-0.3,0.2-0.2l7.2,2.6
	c0.2,0.1,0.3-0.2,0.2-0.3l-5.8-5C30.2,75,30.2,74.8,30.4,74.8z"/>
<path id="XMLID_205_" class="st1" d="M87.3,0H0.9H0v0.9v20.8v63c0,7.4,6,13.4,13.4,13.4h20.2c5.2,0,8.2,2,9.5,6.2
	c0.1,0.2,0.2,0.3,0.3,0.4c0.1,0.1,0.3,0.2,0.5,0.2l0,0c0.4,0,0.7-0.2,0.8-0.6c1.3-4.2,4.4-6.2,9.5-6.2h20.2c7.4,0,13.4-6,13.4-13.4
	v-63V0.9V0H87.3z"/>
<path id="XMLID_204_" class="st2" d="M84.7,3.5v81.2c0,5.5-4.5,10-10,10H54.5c-4.6,0-8.1,1.4-10.4,4.1c-2.3-2.7-5.8-4.1-10.4-4.1
	H13.5c-5.5,0-10-4.5-10-10V3.5H84.7"/>
<path id="XMLID_203_" class="st3" d="M33.7,94.7H13.5c-5.5,0-10-4.5-10-10V49.1h40.6v49.6C41.8,96,38.3,94.7,33.7,94.7z"/>
<rect id="XMLID_202_" x="44.1" y="3.5" class="st3" width="40.6" height="45.6"/>
<path id="XMLID_201_" class="st0" d="M23.8,8.8c-1.3,0.5-5.7,4.8-8.5,9.4c0.5,0.3,0.9,0.6,1.3,0.9c4.7-5.3,7.2-5.9,7.2-5.9
	s3.8,1,10.8,10.4C33.4,17.5,25.7,9.5,23.8,8.8z"/>
<g id="XMLID_196_">
	<path id="XMLID_199_" class="st0" d="M13.3,14.5c-1.1,0.4-5.9,6.2-6.6,10c4.3-5.8,6.6-6.2,6.6-6.2s2.3,0.4,6.6,6.2
		C19.2,20.7,14.4,14.9,13.3,14.5z"/>
	<path id="XMLID_197_" class="st0" d="M34.4,14.5c-0.5,0.2-1.9,1.6-3.3,3.5c0.4,0.5,0.7,1.2,0.9,1.8c1.6-1.3,2.4-1.5,2.4-1.5
		s2.3,0.4,6.6,6.2C40.3,20.7,35.5,14.9,34.4,14.5z"/>
</g>
<path id="XMLID_195_" class="st1" d="M71.6,15.9c5.1,2.3,9.3-0.4,9.3-0.4s-4.7-3.6-10-2.3c3.1-0.7,3.9-4.7,3.9-4.7s-5.8,0.3-8.4,3.9
	c-1.6-1.8-4.1-2.9-9.6-2.4c2,2.1,4.8,3.1,4.8,3.1s-6.6,0.4-8.9,5.8c5.7-0.3,10.7-2.5,10.7-2.5s-3.9,2.7-3.8,5.9
	c4.7-1.7,7.2-3.9,7.2-3.9c1.9,8.9,0.4,17.8-1.5,22.8H69c1.1-5.1,2.7-17.4-0.3-23.3c2.4,2.8,6.9,4.4,9.7,5.2
	C77.3,18.5,74.6,17.8,71.6,15.9z"/>
<path id="XMLID_194_" class="st1" d="M30.4,73.2l7.5-1.4c0.2,0,0.2-0.3,0-0.4L30.4,70c-0.2,0-0.2-0.2-0.1-0.3l5.8-5
	c0.2-0.1,0-0.4-0.2-0.3L28.7,67c-0.2,0.1-0.3-0.1-0.2-0.2l2.6-7.2c0.1-0.2-0.2-0.3-0.3-0.2l-5,5.8c-0.1,0.1-0.3,0.1-0.3-0.1L24,57.5
	c0-0.2-0.3-0.2-0.4,0L22.2,65c0,0.2-0.2,0.2-0.3,0.1l-5-5.8c-0.1-0.2-0.4,0-0.3,0.2l2.6,7.2c0.1,0.2-0.1,0.3-0.2,0.2l-7.2-2.6
	c-0.2-0.1-0.3,0.2-0.2,0.3l5.8,5c0.1,0.1,0.1,0.3-0.1,0.3l-7.5,1.4c-0.2,0-0.2,0.3,0,0.4l7.5,1.4c0.2,0,0.2,0.2,0.1,0.3l-5.8,5
	c-0.2,0.1,0,0.4,0.2,0.3l7.2-2.6c0.2-0.1,0.3,0.1,0.2,0.2l-2.6,7.2c-0.1,0.2,0.2,0.3,0.3,0.2l5-5.8c0.1-0.1,0.3-0.1,0.3,0.1l1.4,7.5
	c0,0.2,0.3,0.2,0.4,0l1.4-7.5c0-0.2,0.2-0.2,0.3-0.1l5,5.8c0.1,0.2,0.4,0,0.3-0.2l-2.6-7.2c-0.1-0.2,0.1-0.3,0.2-0.2l7.2,2.6
	c0.2,0.1,0.3-0.2,0.2-0.3l-5.8-5C30.2,73.4,30.2,73.2,30.4,73.2z"/>
<g id="XMLID_181_">
	<path id="XMLID_193_" class="st0" d="M61.2,27.3v37c0,2.5-1.5,4.6-4,4.6H49c-2.1,0-3.7,0.6-4.8,1.9c-1.1-1.3-2.7-1.9-4.8-1.9h-8.2
		c-2.5,0-4.6-2.1-4.6-4.6v-37L61.2,27.3"/>
	<path id="XMLID_192_" class="st3" d="M44.1,30.2c0,0-9.5,6-1.4,10.7c0,0-2.7-2.9,1.4-7c4.2,4,1.4,7,1.4,7
		C53.6,36.2,44.1,30.2,44.1,30.2z"/>
	<path id="XMLID_191_" class="st3" d="M50,32.7c0,0-5.5,3.7-2.8,6.9c0.1-0.1,0.2-0.2,0.2-0.2s-0.3,0.2,0.3-0.2
		c1.1-1.1,1.9-2.7,2.2-3.6c3.2,3,1.1,5.4,1.1,5.4C57.2,37.4,50,32.7,50,32.7z"/>
	<path id="XMLID_190_" class="st3" d="M38.2,32.7c0,0,5.5,3.7,2.8,6.9c-0.1-0.1-0.2-0.2-0.2-0.2s0.3,0.2-0.3-0.2
		c-1.1-1.1-1.9-2.7-2.2-3.6c-3.2,3-1.1,5.4-1.1,5.4C31.1,37.4,38.2,32.7,38.2,32.7z"/>
	<g id="XMLID_183_">
		<path id="XMLID_189_" class="st2" d="M44.1,58.1c0.5,0,0.9-0.4,1-0.9c0,0,0,0,0-0.1l0,0l0,0c0-0.5-0.4-1.4-1-2.5l0,0
			c-0.6,1.1-1,2.1-1,2.5l0,0l0,0c0,0,0,0,0,0.1C43.2,57.7,43.6,58.1,44.1,58.1"/>
		<path id="XMLID_188_" class="st2" d="M44.1,66.2c0.5,0,0.9-0.4,1-0.9c0,0,0,0,0-0.1l0,0l0,0c0-0.5-0.4-1.4-1-2.5l0,0
			c-0.6,1.1-1,2.1-1,2.5l0,0l0,0c0,0,0,0,0,0.1C43.2,65.9,43.6,66.2,44.1,66.2"/>
		<path id="XMLID_187_" class="st2" d="M53.2,54.9c0.5,0,0.9-0.4,1-0.9c0,0,0,0,0-0.1l0,0l0,0c0-0.5-0.4-1.4-1-2.5l0,0
			c-0.6,1.1-1,2.1-1,2.5l0,0l0,0c0,0,0,0,0,0.1C52.3,54.5,52.7,54.9,53.2,54.9"/>
		<path id="XMLID_186_" class="st2" d="M53.2,63c0.5,0,0.9-0.4,1-0.9c0,0,0,0,0-0.1l0,0l0,0c0-0.5-0.4-1.4-1-2.5l0,0
			c-0.6,1.1-1,2.1-1,2.5l0,0l0,0c0,0,0,0,0,0.1C52.3,62.7,52.7,63,53.2,63"/>
		<path id="XMLID_185_" class="st2" d="M35,54.9c0.5,0,0.9-0.4,1-0.9c0,0,0,0,0-0.1l0,0l0,0c0-0.5-0.4-1.4-1-2.5l0,0
			c-0.6,1.1-1,2.1-1,2.5l0,0l0,0c0,0,0,0,0,0.1C34.1,54.5,34.5,54.9,35,54.9"/>
		<path id="XMLID_184_" class="st2" d="M35,63c0.5,0,0.9-0.4,1-0.9c0,0,0,0,0-0.1l0,0l0,0c0-0.5-0.4-1.4-1-2.5l0,0
			c-0.6,1.1-1,2.1-1,2.5l0,0l0,0c0,0,0,0,0,0.1C34.1,62.7,34.5,63,35,63"/>
	</g>
	<path id="XMLID_182_" class="st2" d="M31.3,43c2,3.9,7,6.6,12.8,6.6s10.7-2.7,12.8-6.6H31.3z"/>
</g>
<path id="XMLID_180_" class="st0" d="M84.7,77.3c-0.6,0.4-1.5,0.7-2.6,0.7c-0.3,0-0.7,0-1-0.1l0,0c-0.1,0-0.2-0.1-0.4-0.1l0,0
	c-0.3-0.1-0.5-0.3-0.7-0.5l-0.1-0.1l0,0l0,0l-0.1-0.1C79.2,76,80,75.3,80,75.3s-0.4-0.2-0.5-0.3c-0.7-0.3-2.2-0.5-3.6-0.1
	c-1.4,0.5-2.2,1.1-3,1.8c-0.4,0.3-1.5,1.4-3.5,1.4c-0.3,0-0.7,0-1-0.1l0,0c-0.1,0-0.2-0.1-0.4-0.1l0,0c-0.3-0.1-0.5-0.3-0.7-0.5
	l-0.1-0.1l0,0l0,0l-0.1-0.1c-0.6-1.1,0.2-1.8,0.2-1.8s-0.4-0.2-0.5-0.3c-0.7-0.3-2.2-0.5-3.6-0.1c-1.4,0.5-2.2,1.1-3,1.8
	c-0.4,0.3-1.5,1.4-3.5,1.4c-0.3,0-0.7,0-1-0.1l0,0c-0.1,0-0.2-0.1-0.4-0.1l0,0c-0.3-0.1-0.5-0.3-0.7-0.5l-0.1-0.1l0,0l0,0l-0.1-0.1
	c-0.6-1.1,0.2-1.8,0.2-1.8s-0.4-0.2-0.5-0.3c-0.7-0.3-2.2-0.5-3.6-0.1c-1.4,0.5-2.2,1.1-3,1.8c-0.4,0.3-1.5,1.4-3.5,1.4v2.3
	c1.3,0,2.6-0.4,3.7-1.1c0.5-0.4,0.9-0.7,1.3-1c0.8-0.6,1.2-1.1,2.3-1.5c0.5-0.2,1-0.2,1.6-0.1c-0.1,0.2-0.3,2,1,2.9
	c0.7,0.5,1.6,0.8,2.8,0.8c1.3,0,2.6-0.4,3.7-1.1c0.5-0.4,0.9-0.7,1.3-1c0.8-0.6,1.2-1.1,2.3-1.5c0.5-0.2,1-0.2,1.6-0.1
	c-0.1,0.2-0.3,2,1,2.9c0.7,0.5,1.6,0.8,2.8,0.8c1.3,0,2.6-0.4,3.7-1.1c0.5-0.4,0.9-0.7,1.3-1c0.8-0.6,1.2-1.1,2.3-1.5
	c0.5-0.2,1-0.2,1.6-0.1c-0.1,0.2-0.3,2,1,2.9c0.7,0.5,1.6,0.8,2.8,0.8c0.9,0,1.8-0.2,2.6-0.6L84.7,77.3L84.7,77.3z"/>
</svg>
